HIERARCHY
ROOT Hips
{
	OFFSET 0.000000 0.000000 0.000000
	CHANNELS 6 Xposition Yposition Zposition Zrotation Yrotation Xrotation 
	JOINT LHipJoint
	{
		OFFSET 0.000000 0.000000 0.000000
		CHANNELS 3 Zrotation Yrotation Xrotation
		JOINT LeftUpLeg
		{
			OFFSET 1.363060 -1.794630 0.839290
			CHANNELS 3 Zrotation Yrotation Xrotation
			JOINT LeftLeg
			{
				OFFSET 2.448110 -6.726130 0.000000
				CHANNELS 3 Zrotation Yrotation Xrotation
				JOINT LeftFoot
				{
					OFFSET 2.562200 -7.039590 0.000000
					CHANNELS 3 Zrotation Yrotation Xrotation
					JOINT LeftToeBase
					{
						OFFSET 0.157640 -0.433110 2.322550
						CHANNELS 3 Zrotation Yrotation Xrotation
						End Site
						{
							OFFSET 0.000000 0.000000 0.000000
						}
					}
				}
			}
		}
	}
	JOINT RHipJoint
	{
		OFFSET 0.000000 0.000000 0.000000
		CHANNELS 3 Zrotation Yrotation Xrotation
		JOINT RightUpLeg
		{
			OFFSET -1.305520 -1.794630 0.839290
			CHANNELS 3 Zrotation Yrotation Xrotation
			JOINT RightLeg
			{
				OFFSET -2.542530 -6.985550 0.000000
				CHANNELS 3 Zrotation Yrotation Xrotation
				JOINT RightFoot
				{
					OFFSET -2.568260 -7.056230 0.000000
					CHANNELS 3 Zrotation Yrotation Xrotation
					JOINT RightToeBase
					{
						OFFSET -0.164730 -0.452590 2.363150
						CHANNELS 3 Zrotation Yrotation Xrotation
						End Site
						{
							OFFSET 0.000000 0.000000 0.000000
						}
					}
				}
			}
		}
	}
}
MOTION
Frames: 33
Frame Time: 0.008333
-19.068560 16.940756 -0.657032 78.785066 85.738862 98.426508 -6.843147 1.738464 7.617098 -14.936931 -15.762290 -41.436256 -3.354128 -0.662298 18.165045 1.036777 2.448604 -10.440912 -0.077900 0.000000 -11.890500 12.506842 -4.796716 0.596312 0.507486 -12.866562 -0.252406 -0.034288 -1.563450 21.870157 -0.750737 8.463872 34.485015 5.916000 0.000001 -75.040800
-18.861733 16.941911 -0.657521 81.242114 85.424408 100.436138 -6.823532 1.909428 7.465064 -15.909669 -15.229730 -40.440553 -3.398605 -0.537127 18.825141 0.987800 2.325507 -10.174460 -0.058900 0.000001 -12.021900 12.675484 -4.633619 0.436501 -0.219584 -13.925630 -0.976760 -0.209161 -1.604800 24.405407 -0.968572 7.248364 35.334138 5.293901 0.000000 -71.374099
-18.657326 16.942518 -0.659247 83.686565 85.109264 102.423063 -6.814633 2.072852 7.304796 -16.837150 -14.663256 -39.386178 -3.443203 -0.422552 19.428656 0.937051 2.154869 -9.997100 -0.050601 0.000000 -12.083300 12.816287 -4.452013 0.260418 -0.906375 -14.962467 -1.729106 -0.359288 -1.649918 27.013816 -1.177518 5.563052 35.589420 4.280000 0.000001 -67.431600
-18.455069 16.942970 -0.662877 86.013773 84.811925 104.301954 -6.822024 2.223936 7.142938 -17.680286 -14.073034 -38.299155 -3.484837 -0.321116 19.972725 0.885190 1.936556 -9.916350 -0.052500 0.000000 -12.052700 12.923116 -4.263917 0.081069 -1.517342 -15.918081 -2.527154 -0.485170 -1.707476 29.672039 -1.370970 3.520768 35.202306 2.976800 0.000001 -63.459900
-18.255253 16.943777 -0.667478 88.045091 84.512398 105.896194 -6.832192 2.361640 6.983258 -18.448789 -13.503195 -37.139806 -3.525764 -0.240480 20.389685 0.838920 1.718655 -9.908456 -0.061000 0.000000 -11.941700 13.008639 -4.068325 -0.100519 -2.085810 -16.755803 -3.375235 -0.592327 -1.785193 32.378743 -1.543609 1.299935 34.147677 1.549200 -0.000000 -59.576200
-18.056828 16.945371 -0.674334 89.752444 84.249244 107.204308 -6.857695 2.482934 6.830800 -19.105244 -12.931490 -35.972547 -3.563474 -0.179015 20.708541 0.793609 1.471276 -9.978118 -0.075000 -0.000000 -11.763400 13.063205 -3.882836 -0.263058 -2.547397 -17.419272 -4.307236 -0.681081 -1.885652 35.096737 -1.688924 -0.920119 32.464056 0.165100 -0.000000 -55.954599
-17.859907 16.948237 -0.683043 91.031520 84.020068 108.127327 -6.892299 2.588494 6.686629 -19.660908 -12.368715 -34.790831 -3.600046 -0.139750 20.896535 0.751039 1.213791 -10.101316 -0.091400 0.000000 -11.556300 13.095240 -3.709939 -0.399769 -2.912141 -17.882619 -5.335850 -0.755497 -2.009475 37.809133 -1.802392 -2.965046 30.213134 -1.022000 -0.000000 -52.608601
-17.664156 16.952829 -0.693621 91.821624 83.833680 108.612273 -6.936262 2.678964 6.550261 -20.120095 -11.804990 -33.610837 -3.636304 -0.122729 20.947768 0.710120 0.946422 -10.259356 -0.107700 -0.000000 -11.360800 13.107886 -3.554357 -0.500941 -3.171608 -18.124462 -6.475265 -0.817854 -2.153728 40.488987 -1.880797 -4.710595 27.491087 -1.914500 -0.000000 -49.518399
-17.469533 16.959498 -0.705851 92.068975 83.690886 108.605135 -6.987033 2.755846 6.419366 -20.496645 -11.233562 -32.433311 -3.673275 -0.127889 20.851367 0.670869 0.677660 -10.430254 -0.122100 -0.000000 -11.217800 13.106776 -3.416131 -0.561899 -3.335725 -18.140526 -7.725367 -0.869800 -2.313308 43.106267 -1.922636 -6.080261 24.415176 -2.471800 0.000000 -46.634800
-17.276042 16.968538 -0.719674 91.751275 83.596592 108.082823 -7.047036 2.820103 6.290243 -20.797275 -10.635603 -31.268814 -3.710610 -0.153442 20.613538 0.631939 0.406025 -10.596844 -0.133200 0.000000 -11.158100 13.092888 -3.295888 -0.578220 -3.404258 -17.932267 -9.082729 -0.911619 -2.481543 45.627613 -1.928795 -7.054028 21.115538 -2.712400 -0.000000 -43.908500
-17.083806 16.980087 -0.734865 90.852611 83.547328 107.021191 -7.116084 2.872895 6.158293 -21.033652 -9.999997 -30.110834 -3.747825 -0.197894 20.234166 0.593565 0.140217 -10.742128 -0.140400 0.000000 -11.201499 13.068703 -3.190338 -0.551501 -3.392567 -17.517253 -10.529410 -0.943244 -2.651777 48.019080 -1.902283 -7.647770 17.724536 -2.691301 -0.000000 -41.305400
-16.892801 16.994214 -0.751311 89.381704 83.539660 105.419421 -7.196457 2.914868 6.019009 -21.212011 -9.314422 -28.953973 -3.783468 -0.259017 19.720633 0.555770 -0.113738 -10.853786 -0.143800 -0.000000 -11.353400 13.033710 -3.096301 -0.485179 -3.311417 -16.918863 -12.043914 -0.964422 -2.817846 50.247979 -1.848510 -7.909298 14.368236 -2.485100 -0.000000 -38.812100
-16.703167 17.010857 -0.768915 87.363156 83.569261 103.291803 -7.291561 2.946488 5.868494 -21.334375 -8.568114 -27.793080 -3.815489 -0.334120 19.085092 0.518702 -0.350532 -10.924037 -0.143599 -0.000000 -11.605500 12.985689 -3.010651 -0.384527 -3.167820 -16.165727 -13.603329 -0.975398 -2.974551 52.285636 -1.775073 -7.906878 11.159637 -2.174100 0.000000 -36.453400
-16.515127 17.029797 -0.787585 84.829257 83.626764 100.659671 -7.403196 2.968459 5.704349 -21.404185 -7.759737 -26.616328 -3.841975 -0.420821 18.335182 0.483436 -0.559493 -10.947265 -0.140800 0.000000 -11.940000 12.922929 -2.929261 -0.257344 -2.972918 -15.291562 -15.182786 -0.977208 -3.118177 54.110209 -1.690458 -7.715490 8.184564 -1.825401 0.000000 -34.242800
-16.328682 17.050719 -0.807204 81.824215 83.702634 97.558511 -7.532834 2.981967 5.526057 -21.423383 -6.891995 -25.414615 -3.861133 -0.516609 17.479995 0.451015 -0.731312 -10.921090 -0.136200 0.000000 -12.333000 12.843428 -2.848489 -0.111321 -2.733695 -14.329848 -16.761942 -0.971370 -3.246047 55.707350 -1.603440 -7.412100 5.497127 -1.487900 0.000000 -32.179001
-16.143781 17.073170 -0.827678 78.402826 83.785500 94.037363 -7.680667 2.988896 5.335134 -21.395218 -5.973599 -24.180770 -3.871702 -0.619000 16.527876 0.422396 -0.857605 -10.844198 -0.130900 -0.000000 -12.759300 12.745837 -2.764783 0.046381 -2.456503 -13.311849 -18.325298 -0.959457 -3.356377 57.070592 -1.522066 -7.067533 3.115745 -1.189400 0.000000 -30.223101
-15.959998 17.096551 -0.848770 74.642166 83.864312 90.178379 -7.844400 2.992953 5.137642 -21.326303 -5.018315 -22.927642 -3.873732 -0.725111 15.495984 0.397849 -0.936575 -10.718255 -0.125300 -0.000000 -13.186900 12.630690 -2.674859 0.213272 -2.144420 -12.263577 -19.875292 -0.942937 -3.447447 58.203354 -1.453455 -6.743628 1.030075 -0.940701 0.000000 -28.346599
-15.777681 17.120532 -0.870511 70.599782 83.926837 86.018978 -8.023817 2.994571 4.930456 -21.219984 -4.037009 -21.611162 -3.866123 -0.834587 14.361947 0.378354 -0.955341 -10.534560 -0.119900 -0.000001 -13.631499 12.496894 -2.575848 0.376823 -1.812685 -11.208320 -21.370782 -0.921493 -3.519856 59.102383 -1.401798 -6.480927 -0.805944 -0.738400 -0.000000 -26.345400
-15.595831 17.144356 -0.892435 66.406925 83.965064 81.717042 -8.212165 3.000739 4.726816 -21.089888 -3.047300 -20.284796 -3.851664 -0.943689 13.163338 0.361857 -0.930882 -10.296722 -0.114000 0.000001 -14.058600 12.349107 -2.465208 0.544926 -1.459474 -10.159672 -22.849936 -0.895770 -3.571588 59.784784 -1.371706 -6.315118 -2.433209 -0.575400 0.000001 -24.258800
-15.414256 17.167617 -0.914306 62.176884 83.972557 77.384747 -8.405504 3.014420 4.529200 -20.945405 -2.059413 -18.944322 -3.831802 -1.051217 11.899626 0.346759 -0.871081 -9.996582 -0.106800 0.000000 -14.487400 12.190107 -2.341143 0.715401 -1.096351 -9.128782 -24.304962 -0.864858 -3.602952 60.256861 -1.364924 -6.259423 -3.906186 -0.439600 0.000001 -21.993300
-15.232487 17.189922 -0.935836 58.042792 83.947073 73.163033 -8.598670 3.039243 4.342150 -20.797075 -1.080545 -17.606395 -3.809126 -1.155507 10.584238 0.330186 -0.795343 -9.627692 -0.096900 0.000000 -14.937400 12.024242 -2.202926 0.891045 -0.732195 -8.122686 -25.743742 -0.828029 -3.614213 60.527470 -1.382219 -6.315359 -5.267085 -0.319700 -0.000000 -19.554600
-15.050066 17.210993 -0.956644 54.136581 83.890391 69.191587 -8.787353 3.078106 4.169120 -20.654460 -0.113040 -16.290763 -3.786533 -1.254871 9.235042 0.308483 -0.729611 -9.182172 -0.082899 -0.000000 -15.436700 11.855547 -2.051090 1.075957 -0.375987 -7.145500 -27.175458 -0.784830 -3.606025 60.603108 -1.423300 -6.474490 -6.541914 -0.206400 -0.000000 -17.003700
-14.866641 17.230668 -0.976423 50.574400 83.808007 65.590968 -8.967753 3.132310 4.011609 -20.524608 0.841788 -15.012258 -3.766636 -1.347972 7.868901 0.278333 -0.698661 -8.651686 -0.064000 0.000000 -16.026601 11.687817 -1.887129 1.272813 -0.037992 -6.202558 -28.605278 -0.734952 -3.579936 60.488190 -1.486378 -6.718426 -7.742102 -0.093599 -0.000000 -14.420800
-14.681901 17.248838 -0.994868 47.447362 83.707758 62.457084 -9.137924 3.202325 3.870822 -20.411420 1.784230 -13.787976 -3.751800 -1.433325 6.508278 0.236705 -0.728089 -8.030279 -0.040800 0.000000 -16.743000 11.523340 -1.713945 1.484779 0.274151 -5.298433 -30.038920 -0.678960 -3.537501 60.184391 -1.568870 -7.026186 -8.857170 0.020700 -0.000000 -11.961300
-14.495638 17.265534 -1.011570 44.819125 83.598726 59.855364 -9.297624 3.287996 3.747364 -20.315826 2.717861 -12.637267 -3.744201 -1.509106 5.182944 0.181221 -0.843612 -7.318392 -0.015301 -0.000000 -17.602101 11.362975 -1.535742 1.715197 0.555877 -4.437199 -31.480094 -0.618437 -3.480103 59.690750 -1.667192 -7.376010 -9.856438 0.132700 -0.000000 -9.853501
-14.307761 17.280731 -1.026333 42.714575 83.489328 57.809617 -9.446848 3.387084 3.641049 -20.234744 3.631563 -11.561017 -3.743963 -1.574564 3.908107 0.112506 -1.049519 -6.516462 0.008900 0.000000 -18.637200 11.206682 -1.356447 1.961830 0.803892 -3.628086 -32.923370 -0.553922 -3.409867 59.005781 -1.776173 -7.741222 -10.718954 0.237400 0.000000 -8.179900
-14.118336 17.294457 -1.038807 41.138930 83.387259 56.321656 -9.586888 3.497765 3.551953 -20.163178 4.518920 -10.566114 -3.751049 -1.628311 2.709835 0.031903 -1.350717 -5.636063 0.026800 0.000000 -19.836500 11.053343 -1.181083 2.223773 1.020719 -2.877739 -34.362526 -0.486221 -3.328137 58.127104 -1.890243 -8.097859 -11.418978 0.326700 0.000000 -7.031499
-13.927525 17.306681 -1.048790 40.071501 83.298706 55.365089 -9.718790 3.617116 3.479683 -20.093151 5.363892 -9.646726 -3.763713 -1.669707 1.604150 -0.057001 -1.735456 -4.692438 0.033200 0.000001 -21.183601 10.901523 -1.014276 2.496563 1.212656 -2.194293 -35.784680 -0.414475 -3.236412 57.052441 -2.003167 -8.419808 -11.949498 0.393800 -0.000000 -6.356700
-13.735471 17.317282 -1.056133 39.464525 83.228306 54.886486 -9.843530 3.741306 3.424151 -20.013949 6.141237 -8.788898 -3.778558 -1.698917 0.596363 -0.148930 -2.175858 -3.702449 0.024399 -0.000000 -22.676200 10.749434 -0.860476 2.774214 1.390458 -1.581992 -37.172326 -0.336930 -3.135825 55.778522 -2.108422 -8.681520 -12.309503 0.432900 0.000000 -6.102600
-13.542520 17.326128 -1.060679 39.269050 83.179327 54.828204 -9.961912 3.867421 3.382961 -19.916338 6.840735 -7.982417 -3.793109 -1.715697 -0.299910 -0.239784 -2.654300 -2.693964 -0.002200 -0.000000 -24.251401 10.595812 -0.724291 3.051773 1.567194 -1.041825 -38.506072 -0.250205 -3.027134 54.304376 -2.199584 -8.856614 -12.518780 0.442500 0.000000 -6.091900
-13.349031 17.333027 -1.062383 39.420648 83.153647 55.117399 -10.074191 3.992249 3.353273 -19.790683 7.450022 -7.210749 -3.804192 -1.720537 -1.081757 -0.325346 -3.145340 -1.692131 -0.046700 -0.000000 -25.872500 10.439823 -0.609779 3.324194 1.756102 -0.569136 -39.763552 -0.150318 -2.910615 52.628376 -2.270110 -8.919834 -12.598217 0.423500 0.000000 -6.212000
-13.155141 17.337667 -1.061286 39.838645 83.151205 55.668653 -10.180440 4.112397 3.332307 -19.628423 7.954579 -6.455566 -3.808370 -1.714683 -1.757936 -0.401818 -3.617592 -0.715298 -0.106300 0.000000 -27.538800 10.280674 -0.520065 3.587415 1.969391 -0.152021 -40.924686 -0.032996 -2.785884 50.749255 -2.313390 -8.847483 -12.567843 0.378700 -0.000000 -6.414301
-12.961242 17.339814 -1.057395 40.465894 83.170583 56.415778 -10.279782 4.226387 3.313617 -19.426674 8.368434 -5.708571 -3.805199 -1.698494 -2.321345 -0.468541 -4.068513 0.209634 -0.178500 -0.000001 -29.175300 10.119462 -0.457536 3.840494 2.212507 0.223109 -41.970856 0.106419 -2.651965 48.669985 -2.323056 -8.617145 -12.456590 0.314600 -0.000000 -6.593200
